<svg width="24" height="23" viewBox="0 0 24 23" fill="none" xmlns="http://www.w3.org/2000/svg">
<path d="M18.408 3.98105C18.1232 3.98105 17.8448 4.06202 17.608 4.21372C17.3712 4.36541 17.1866 4.58102 17.0776 4.83328C16.9686 5.08554 16.9401 5.36313 16.9957 5.63092C17.0512 5.89872 17.1884 6.14471 17.3898 6.33779C17.5912 6.53086 17.8477 6.66234 18.1271 6.71561C18.4064 6.76888 18.6959 6.74154 18.9591 6.63705C19.2222 6.53256 19.4471 6.35561 19.6053 6.12858C19.7635 5.90155 19.848 5.63464 19.848 5.36159C19.848 4.99545 19.6963 4.64431 19.4262 4.3854C19.1562 4.1265 18.7899 3.98105 18.408 3.98105ZM23.928 6.76515C23.9047 5.81061 23.7182 4.86621 23.376 3.96955C23.0709 3.20235 22.596 2.50764 21.984 1.93325C21.3898 1.34356 20.6635 0.891141 19.86 0.610228C18.9272 0.27218 17.941 0.0893147 16.944 0.0695153C15.672 0.000488217 15.264 0.000488281 12 0.000488281C8.736 0.000488281 8.328 0.000488217 7.056 0.0695153C6.05898 0.0893147 5.07281 0.27218 4.14 0.610228C3.33801 0.893985 2.61232 1.34601 2.016 1.93325C1.40091 2.50293 0.929012 3.19925 0.636 3.96955C0.283393 4.86384 0.092652 5.8093 0.0719999 6.76515C-6.70552e-08 7.98462 0 8.37578 0 11.505C0 14.6342 -6.70552e-08 15.0254 0.0719999 16.2449C0.092652 17.2007 0.283393 18.1462 0.636 19.0405C0.929012 19.8108 1.40091 20.5071 2.016 21.0768C2.61232 21.664 3.33801 22.116 4.14 22.3998C5.07281 22.7378 6.05898 22.9207 7.056 22.9405C8.328 23.0095 8.736 23.0095 12 23.0095C15.264 23.0095 15.672 23.0095 16.944 22.9405C17.941 22.9207 18.9272 22.7378 19.86 22.3998C20.6635 22.1189 21.3898 21.6665 21.984 21.0768C22.5987 20.5045 23.074 19.8092 23.376 19.0405C23.7182 18.1438 23.9047 17.1994 23.928 16.2449C23.928 15.0254 24 14.6342 24 11.505C24 8.37578 24 7.98462 23.928 6.76515ZM21.768 16.1068C21.7593 16.8371 21.6213 17.5606 21.36 18.2467C21.1684 18.7473 20.8607 19.1997 20.46 19.5697C20.0708 19.9499 19.5999 20.2443 19.08 20.4325C18.3644 20.683 17.6097 20.8153 16.848 20.8237C15.648 20.8812 15.204 20.8927 12.048 20.8927C8.892 20.8927 8.448 20.8927 7.248 20.8237C6.45707 20.8379 5.66951 20.7211 4.92 20.4785C4.42294 20.2807 3.97363 19.987 3.6 19.6157C3.20171 19.2461 2.89781 18.7933 2.712 18.2927C2.41903 17.5968 2.25653 16.8568 2.232 16.1068C2.232 14.9564 2.16 14.5307 2.16 11.505C2.16 8.47932 2.16 8.05365 2.232 6.9032C2.23738 6.15662 2.37954 5.41675 2.652 4.71734C2.86326 4.23175 3.18752 3.79889 3.6 3.45184C3.96458 3.05628 4.41515 2.74213 4.92 2.53148C5.65146 2.27843 6.4224 2.14617 7.2 2.14033C8.4 2.14033 8.844 2.0713 12 2.0713C15.156 2.0713 15.6 2.0713 16.8 2.14033C17.5617 2.1487 18.3164 2.28097 19.032 2.53148C19.5773 2.72551 20.0668 3.04096 20.46 3.45184C20.8532 3.80524 21.1605 4.2373 21.36 4.71734C21.6267 5.41789 21.7647 6.15745 21.768 6.9032C21.828 8.05365 21.84 8.47932 21.84 11.505C21.84 14.5307 21.828 14.9564 21.768 16.1068ZM12 5.60319C10.783 5.60546 9.59396 5.95353 8.58319 6.60341C7.57242 7.25329 6.78525 8.17583 6.32116 9.25444C5.85707 10.3331 5.73687 11.5193 5.97575 12.6634C6.21464 13.8075 6.80188 14.858 7.66329 15.6823C8.5247 16.5065 9.62161 17.0675 10.8154 17.2943C12.0093 17.521 13.2464 17.4035 14.3706 16.9565C15.4947 16.5094 16.4555 15.753 17.1314 14.7827C17.8073 13.8124 18.168 12.6718 18.168 11.505C18.1696 10.7286 18.011 9.9595 17.7015 9.24202C17.3919 8.52454 16.9375 7.87281 16.3642 7.32432C15.791 6.77584 15.1103 6.34141 14.3614 6.04603C13.6124 5.75065 12.8099 5.60015 12 5.60319ZM12 15.336C11.2097 15.336 10.4371 15.1113 9.77994 14.6904C9.1228 14.2694 8.61063 13.6711 8.30818 12.9711C8.00573 12.271 7.9266 11.5008 8.08078 10.7576C8.23497 10.0145 8.61555 9.33185 9.1744 8.79608C9.73325 8.2603 10.4453 7.89543 11.2204 7.74761C11.9956 7.59979 12.799 7.67566 13.5292 7.96562C14.2594 8.25558 14.8835 8.74661 15.3226 9.37661C15.7616 10.0066 15.996 10.7473 15.996 11.505C15.996 12.0081 15.8926 12.5063 15.6918 12.9711C15.491 13.4359 15.1967 13.8582 14.8256 14.2139C14.4545 14.5697 14.014 14.8519 13.5292 15.0444C13.0444 15.2369 12.5248 15.336 12 15.336Z" fill="black"/>
</svg>
