<svg width="25" height="23" viewBox="0 0 25 23" fill="none" xmlns="http://www.w3.org/2000/svg">
<path d="M23.1514 0.000160866H1.84859C1.60913 -0.0028816 1.37135 0.0372595 1.14885 0.118292C0.926346 0.199324 0.72347 0.319661 0.551808 0.472428C0.380145 0.625196 0.24306 0.807404 0.14838 1.00864C0.0537002 1.20988 0.00328017 1.42622 0 1.64528V21.3638C0.00328017 21.5828 0.0537002 21.7992 0.14838 22.0004C0.24306 22.2016 0.380145 22.3838 0.551808 22.5366C0.72347 22.6894 0.926346 22.8097 1.14885 22.8907C1.37135 22.9718 1.60913 23.0119 1.84859 23.0089H23.1514C23.3909 23.0119 23.6286 22.9718 23.8511 22.8907C24.0737 22.8097 24.2765 22.6894 24.4482 22.5366C24.6199 22.3838 24.7569 22.2016 24.8516 22.0004C24.9463 21.7992 24.9967 21.5828 25 21.3638V1.64528C24.9967 1.42622 24.9463 1.20988 24.8516 1.00864C24.7569 0.807404 24.6199 0.625196 24.4482 0.472428C24.2765 0.319661 24.0737 0.199324 23.8511 0.118292C23.6286 0.0372595 23.3909 -0.0028816 23.1514 0.000160866ZM7.583 19.2585H3.81036V8.90453H7.583V19.2585ZM5.69668 7.45498C5.17639 7.45498 4.6774 7.2659 4.3095 6.92933C3.9416 6.59277 3.73491 6.13628 3.73491 5.6603C3.73491 5.18433 3.9416 4.72784 4.3095 4.39127C4.6774 4.05471 5.17639 3.86562 5.69668 3.86562C5.97296 3.83696 6.25274 3.86201 6.5177 3.93912C6.78266 4.01623 7.02683 4.14367 7.23423 4.3131C7.44162 4.48253 7.60755 4.69012 7.72117 4.92228C7.83478 5.15444 7.89351 5.40594 7.89351 5.6603C7.89351 5.91467 7.83478 6.16617 7.72117 6.39833C7.60755 6.63049 7.44162 6.83808 7.23423 7.00751C7.02683 7.17694 6.78266 7.30438 6.5177 7.38149C6.25274 7.4586 5.97296 7.48365 5.69668 7.45498ZM21.1896 19.2585H17.417V13.7019C17.417 12.3098 16.8763 11.401 15.5055 11.401C15.0813 11.4038 14.6682 11.5255 14.322 11.7498C13.9757 11.974 13.7129 12.2899 13.5689 12.655C13.4705 12.9254 13.4279 13.2101 13.4432 13.4948V19.2469H9.67052C9.67052 19.2469 9.67052 9.83639 9.67052 8.89303H13.4432V10.3541C13.7859 9.81005 14.2843 9.36185 14.8849 9.05777C15.4854 8.75369 16.1652 8.60525 16.8511 8.62843C19.3662 8.62843 21.1896 10.1125 21.1896 13.2992V19.2585Z" fill="black"/>
</svg>
